<svg width="60" height="64" viewBox="0 0 114 106" fill="none" xmlns="http://www.w3.org/2000/svg">
<g clip-path="url(#clip0_30_63)">
<g clip-path="url(#clip1_30_63)">
<g clip-path="url(#clip2_30_63)">
<ellipse cx="79.9064" cy="71.0618" rx="34.0935" ry="33.9399" fill="#289FD8"/>
<ellipse cx="34.0935" cy="71.0618" rx="34.0935" ry="33.9399" fill="#0E7BB3"/>
<ellipse cx="56.4672" cy="33.9399" rx="34.0935" ry="33.9399" fill="#06597E"/>
<path fill-rule="evenodd" clip-rule="evenodd" d="M22.7576 39.0433C26.3043 37.7988 30.1199 37.1218 34.0943 37.1218C51.1812 37.1218 65.3322 49.6351 67.8049 65.9584C64.2582 67.2029 60.4426 67.8799 56.4681 67.8799C39.3813 67.8799 25.2303 55.3667 22.7576 39.0433Z" fill="#003350"/>
<path fill-rule="evenodd" clip-rule="evenodd" d="M56.9999 96.2022C63.8717 89.993 68.1868 81.03 68.1868 71.0637C68.1868 61.0974 63.8717 52.1344 56.9999 45.9253C50.1281 52.1344 45.813 61.0974 45.813 71.0637C45.813 81.03 50.1281 89.993 56.9999 96.2022Z" fill="#006E9F"/>
<path fill-rule="evenodd" clip-rule="evenodd" d="M90.2531 38.7047C87.9247 55.1933 73.6874 67.8799 56.4718 67.8799C52.872 67.8799 49.4023 67.3252 46.1446 66.297C48.4731 49.8084 62.7103 37.1218 79.9259 37.1218C83.5258 37.1218 86.9954 37.6765 90.2531 38.7047Z" fill="#004B6B"/>
<path fill-rule="evenodd" clip-rule="evenodd" d="M46.133 66.2988C47.2674 58.2611 51.2298 51.1269 56.9865 45.9253C62.6623 51.0537 66.5939 58.0608 67.7905 65.9602C64.2438 67.2047 60.4282 67.8817 56.4538 67.8817C52.8562 67.8817 49.3887 67.327 46.133 66.2988Z" fill="#022946"/>
</g>
</g>
</g>
<defs>
<clipPath id="clip0_30_63">
<rect width="114" height="105.478" fill="white"/>
</clipPath>
<clipPath id="clip1_30_63">
<rect width="114" height="105.478" fill="white"/>
</clipPath>
<clipPath id="clip2_30_63">
<rect width="114" height="105.002" fill="white"/>
</clipPath>
</defs>
</svg>
